<?xml version="1.0" encoding="utf-8"?>
<!-- Generator: Adobe Illustrator 26.3.1, SVG Export Plug-In . SVG Version: 6.00 Build 0)  -->
<svg version="1.1" id="Layer_1" xmlns="http://www.w3.org/2000/svg" xmlns:xlink="http://www.w3.org/1999/xlink" x="0px" y="0px"
	 viewBox="0 0 120 46" style="enable-background:new 0 0 120 46;" xml:space="preserve">
<path d="M60.3,30.3c0.7,0,1.4,0.2,1.9,0.7c0.7,0.7,0.8,1.7,0.8,2.6c0,0.9-0.1,1.9-0.8,2.6C61.7,36.7,61,37,60.3,37h-2.6v-6.7H60.3z
	 M61.3,35.5L61.3,35.5c0.5-0.5,0.5-1.3,0.5-1.9c0-0.6,0-1.4-0.5-1.9c-0.2-0.2-0.6-0.4-0.9-0.4H59v4.5h1.4
	C60.7,35.9,61,35.7,61.3,35.5z M64.5,30.3h1.2V37h-1.2V30.3z M70.6,33.1c1,0.1,1.8,0.8,1.8,1.9c0,0.5-0.2,1-0.6,1.4
	c-0.5,0.5-1.3,0.7-2.1,0.7c-0.7,0-1.4-0.2-2-0.7c-0.4-0.4-0.7-1-0.7-1.6h1.2c0,0.3,0.1,0.6,0.3,0.8c0.3,0.3,0.7,0.4,1.1,0.4
	c0.5,0,0.9-0.1,1.2-0.4c0.2-0.2,0.3-0.4,0.3-0.6c0-0.5-0.4-0.7-0.8-0.8s-1-0.1-1.5-0.2c-0.9-0.2-1.7-0.8-1.7-1.9
	c0-0.5,0.2-1,0.6-1.3c0.5-0.5,1.2-0.7,1.9-0.7c0.7,0,1.3,0.2,1.9,0.6c0.4,0.4,0.6,0.9,0.7,1.4H71c0-0.2-0.1-0.5-0.3-0.7
	c-0.3-0.2-0.6-0.4-1-0.4s-0.8,0.1-1.1,0.4c-0.2,0.1-0.2,0.4-0.2,0.6c0,0.4,0.3,0.7,0.7,0.7C69.6,33,70.2,33,70.6,33.1z M76.5,30.3
	c1.5,0,2.3,0.9,2.3,2.1c0,1.2-0.8,2.1-2.3,2.1h-1.4V37h-1.2v-6.7H76.5z M76.5,33.5c0.8,0,1.2-0.4,1.2-1.1c0-0.6-0.4-1.1-1.2-1.1
	h-1.4v2.2H76.5z M81.3,30.3v5.5h3.1V37h-4.3v-6.7H81.3z M87.1,30.3h1.3l2.3,6.7h-1.3L89,35.7h-2.6L86,37h-1.2L87.1,30.3z M86.8,34.6
	h1.9l-1-2.8L86.8,34.6z M93.5,33.2l1.6-2.9h1.3l-2.3,4.1V37h-1.2v-2.6l-2.3-4.1h1.3L93.5,33.2z M70,21.3v3.5H57.8V22l7.5-9.5h-7.5V9
	H70v2.8l-7.4,9.5H70z M86.6,21.3v3.5H75.1V9h11.5v3.5h-7.7v2.8h6.7v3.2h-6.7v2.8H86.6z M90.7,12.5V9h12.8v3.5H99v12.3h-3.7V12.5
	H90.7z M114.3,9l5.2,15.8h-3.9l-0.7-2.4H109l-0.8,2.4h-3.8L110,9H114.3z M110.1,18.9h3.7l-1.8-6.1L110.1,18.9z M22.1,37L47.3,0v24.5
	L38.8,37H22.1z M8.9,9h16.7L0.3,46V21.6L8.9,9z"/>
</svg>
